<?xml version="1.0" encoding="UTF-8" standalone="no"?>
<!-- Created with Inkscape (http://www.inkscape.org/) -->

<svg
   width="167.07782mm"
   height="96.723763mm"
   viewBox="0 0 167.07782 96.723763"
   version="1.1"
   id="svg1"
   inkscape:version="1.3 (0e150ed6c4, 2023-07-21)"
   sodipodi:docname="FonteLimpaLogo.svg"
   xmlns:inkscape="http://www.inkscape.org/namespaces/inkscape"
   xmlns:sodipodi="http://sodipodi.sourceforge.net/DTD/sodipodi-0.dtd"
   xmlns="http://www.w3.org/2000/svg"
   xmlns:svg="http://www.w3.org/2000/svg">
  <sodipodi:namedview
     id="namedview1"
     pagecolor="#ffffff"
     bordercolor="#000000"
     borderopacity="0.25"
     inkscape:showpageshadow="2"
     inkscape:pageopacity="0.0"
     inkscape:pagecheckerboard="0"
     inkscape:deskcolor="#d1d1d1"
     inkscape:document-units="mm"
     inkscape:zoom="1.0242632"
     inkscape:cx="260.67519"
     inkscape:cy="193.79784"
     inkscape:window-width="1920"
     inkscape:window-height="1009"
     inkscape:window-x="-8"
     inkscape:window-y="-8"
     inkscape:window-maximized="1"
     inkscape:current-layer="layer1" />
  <defs
     id="defs1" />
  <g
     inkscape:label="Camada 1"
     inkscape:groupmode="layer"
     id="layer1"
     transform="translate(3.9156651,-81.796248)">
    <path
       d="m 1.5530117,82.031741 0.2354932,-0.235493 q 3.5585648,0.183161 8.1376004,0.183161 l 9.2627347,-0.0785 q 3.506233,0 8.791748,-0.104663 l 0.235494,0.313991 q -0.209328,1.465291 -0.732646,4.265044 -0.497153,2.773587 -0.57565,3.951054 l -0.287825,0.209327 h -1.334462 l -0.209327,-0.209327 q 0.05233,-1.805449 0.0785,-3.610897 0,-0.784977 -0.156995,-1.046637 -0.13083,-0.287825 -0.70648,-0.549484 -0.57565,-0.261659 -2.459596,-0.497152 -1.883946,-0.235494 -3.97722,-0.235494 -2.276435,0 -4.238878,0.287826 -0.470987,1.465291 -1.125135,5.678004 -0.183161,1.046636 -1.72695,9.838387 l 1.622287,0.0523 q 7.849775,0 10.885021,-0.392489 l 0.235493,0.340159 -0.654147,2.45959 -0.287826,0.2355 q -3.977219,-0.10467 -9.550559,-0.10467 -1.674619,0 -2.747422,0.10467 -1.8839459,11.09435 -1.8839459,12.5858 0,0.83731 0.5494843,1.17747 0.5756502,0.34016 1.5961206,0.39249 l 2.773588,0.13083 0.183161,0.20933 -0.156995,1.30829 -0.235494,0.23549 q -3.035246,-0.18316 -8.6085866,-0.18316 -4.29121046,0 -8.2160981,0.18316 l -0.1831614,-0.20932 0.1569955,-1.3083 0.2354933,-0.23549 q 0.2354932,-0.0262 1.2036322,-0.0785 2.27643479,-0.0785 2.77358722,-0.47099 0.49715243,-0.39248 0.86347528,-1.80544 0.3924888,-1.43913 2.852085,-15.621057 2.1194393,-12.11482 2.1194393,-13.9726 0,-0.654148 -0.3401569,-0.941973 Q 5.6087289,83.968019 5.1377424,83.915687 4.6929218,83.837189 1.5006798,83.654028 L 1.3436843,83.4447 Z M 28.974894,111.41607 q 0,-2.43343 0.811143,-6.09666 0.837309,-3.6894 2.825919,-6.148993 2.014776,-2.485762 5.416345,-4.238879 3.401569,-1.779282 7.012466,-1.779282 3.71556,0 6.044327,2.119439 2.328767,2.11944 2.328767,6.358315 0,3.84639 -1.439126,7.87594 -1.439125,4.00339 -3.84639,5.86117 -2.381098,1.85778 -5.023856,3.19224 -2.616592,1.3083 -5.965829,1.3083 -3.192242,0 -4.971524,-1.2298 -1.779283,-1.2298 -2.485763,-3.16608 -0.706479,-1.93627 -0.706479,-4.05571 z m 6.175156,-0.20933 q 0,3.19224 1.203632,4.63137 1.203633,1.43912 3.453901,1.43912 1.54379,0 2.747422,-0.86347 1.229798,-0.86348 2.250269,-3.08758 1.046636,-2.25027 1.674618,-5.57334 0.654148,-3.32307 0.654148,-6.04433 0,-3.427734 -1.334461,-4.788362 -1.334462,-1.360628 -3.244574,-1.360628 -2.014776,0 -3.558565,1.543789 -1.517623,1.54379 -2.69509,6.044331 -1.1513,4.47437 -1.1513,8.0591 z m 9.236569,-19.624439 z m -6.27982,28.861009 z m 20.330918,-0.73265 -0.680314,-0.65415 q 0.811144,-2.04094 2.093274,-6.80313 1.28213,-4.78837 1.85778,-8.32077 0.601816,-3.53239 0.601816,-4.500534 0,-0.889641 -0.601816,-0.889641 -0.811144,0 -3.767892,2.197935 l -0.366323,-0.0262 -0.523319,-0.915811 0.02617,-0.340157 q 1.360628,-1.1513 3.166076,-2.538094 1.805449,-1.41296 3.27074,-2.328767 1.465291,-0.941973 2.197937,-1.177466 0.732646,-0.261659 1.334462,-0.261659 1.439125,0 1.439125,1.700785 0,1.229798 -0.470986,3.58473 -0.470987,2.328769 -1.962444,7.954439 2.956749,-5.46868 7.431121,-9.341232 4.500537,-3.872556 7.300291,-3.872556 2.224103,0 2.224103,2.485762 0,1.360628 -0.601816,3.898722 -0.601817,2.511924 -1.936278,7.404954 -0.889642,3.24457 -1.229798,5.07619 -0.313992,1.80545 -0.313992,2.32876 0,0.96814 0.627983,0.96814 1.02047,0 3.846389,-2.1456 l 0.313991,0.0262 0.575651,1.02048 -0.0785,0.34015 q -4.474372,3.37541 -6.41065,4.31738 -1.936278,0.96814 -3.323071,0.96814 -1.098969,0 -1.491458,-0.86348 -0.366323,-0.83731 -0.366323,-1.75311 0,-2.11944 1.831615,-8.63476 2.014775,-7.06479 2.014775,-9.027238 0,-1.072803 -1.020471,-1.072803 -0.470986,0 -1.308295,0.418655 -0.811144,0.418654 -2.407265,2.067106 -1.569955,1.62229 -2.904417,3.6894 -1.308296,2.0671 -2.3026,4.47437 -0.968139,2.40726 -1.622287,5.18085 -0.654148,2.74742 -0.811144,4.36971 -3.323071,0.26166 -5.651838,0.9943 z M 94.206529,96.998646 h -5.468677 l -0.183162,-0.261659 0.156996,-0.915808 0.313991,-0.313991 q 2.171771,-0.497152 5.887331,-1.753116 0.05233,-0.601816 0.366323,-2.538094 0.523319,-2.904417 0.523319,-4.866861 1.569955,-0.340157 4.73603,-1.491457 1.43913,-0.523318 1.77928,-0.627982 l 0.60182,0.654148 q -0.83731,2.56426 -2.3811,9.315067 h 2.69509 q 3.13991,0 4.42204,-0.209328 l 0.28783,0.418655 q -0.36633,1.203632 -0.60182,2.511928 l -0.34016,0.261659 q -1.93628,-0.183161 -4.23888,-0.183161 h -2.79975 q -0.44482,2.197937 -1.046636,4.997694 l -1.098969,5.12852 -0.811143,3.97722 q -0.313991,1.67461 -0.392489,2.17177 -0.05233,0.49715 -0.05233,0.88964 0,0.68031 0.340157,1.02047 0.366323,0.34016 0.889641,0.34016 0.470987,0 1.020471,-0.20933 0.549484,-0.2355 1.49146,-0.81115 0.94197,-0.60181 3.27074,-2.2241 l 0.36632,0.0262 0.52332,1.02047 -0.0523,0.31399 q -6.018165,4.39587 -7.928277,5.31168 -1.883946,0.91581 -3.035246,0.91581 -1.517623,0 -2.302601,-0.94198 -0.758811,-0.94197 -0.758811,-2.45959 0,-0.96814 0.261659,-2.40727 0.261659,-1.43912 1.465291,-6.9078 2.040942,-9.419729 2.093274,-10.152374 z m 32.864391,15.778044 0.60181,1.07281 -0.0785,0.31399 q -4.60521,3.27074 -7.45729,4.50054 -2.82592,1.20363 -4.99769,1.20363 -1.91011,0 -3.58473,-0.81115 -1.67462,-0.81114 -2.40727,-2.32876 -0.70648,-1.54379 -0.70648,-3.24458 0,-2.82592 1.07281,-7.24796 1.09897,-4.42204 2.77358,-6.567641 1.67462,-2.145605 5.41635,-4.29121 3.76789,-2.145605 6.46298,-2.145605 2.27644,0 3.71556,1.177466 1.43913,1.1513 1.43913,3.323071 0,2.668929 -1.59612,4.840699 -1.59613,2.1456 -5.31169,3.63706 -3.68939,1.46529 -7.58811,2.11944 -0.28783,1.91011 -0.28783,3.50623 0,2.56426 1.20364,3.50623 1.22979,0.91581 2.72125,0.91581 1.0728,0 2.4596,-0.39249 1.38679,-0.41865 2.3026,-0.9158 0.94197,-0.52332 3.55856,-2.19794 z m -12.03632,-5.88733 q 5.44251,-1.20363 7.32645,-3.71556 1.88395,-2.53809 1.88395,-4.736029 0,-1.255964 -0.73265,-1.936278 -0.73264,-0.706479 -1.80545,-0.706479 -2.1456,0 -3.71556,2.276434 -1.56995,2.250272 -2.95674,8.817912 z m 8.79174,-15.307059 z m -8.73941,28.861009 z"
       id="text1"
       style="font-style:italic;font-weight:bold;font-size:53.5878px;font-family:'Palatino Linotype';-inkscape-font-specification:'Palatino Linotype, Bold Italic';fill:#1a1a1a;stroke-width:2.51193;fill-opacity:1"
       aria-label="Fonte" />
    <path
       d="m 9.3686088,163.5531 0.1831614,-1.38679 0.2616592,-0.23549 q 1.9624436,-0.47099 2.3549326,-0.70648 0.235493,-0.13083 0.340157,-0.26166 0.130829,-0.13083 0.261659,-0.44482 0.366323,-0.99431 1.046637,-4.94536 l 3.323071,-19.51978 q 0.758812,-4.78836 0.758812,-5.99199 0,-0.65415 -0.340157,-0.94197 -0.340157,-0.31399 -0.811144,-0.36633 -0.470986,-0.0785 -3.637062,-0.26166 l -0.156996,-0.20932 0.183162,-1.41296 0.261659,-0.2355 q 3.689394,0.18317 8.26843,0.18317 1.229798,0 8.451591,-0.18317 l 0.156996,0.20933 -0.209327,1.43913 -0.235494,0.20932 q -2.930583,0.10467 -3.375403,0.20933 -0.418655,0.10467 -0.758812,0.44482 -0.340157,0.31399 -0.680314,1.54379 -0.340156,1.2298 -1.229798,6.22749 l -3.296905,18.7348 q -0.680314,3.58473 -0.811144,5.36401 h 4.343543 q 3.296905,0 5.730336,-0.157 2.459596,-0.15699 3.349237,-0.41865 0.889641,-0.26166 1.308296,-0.78498 0.418655,-0.52332 1.020471,-2.79975 0.130829,-0.57565 0.680313,-2.25027 l 0.209328,-0.20933 h 1.543789 l 0.183161,0.20933 q -0.0785,0.62798 -0.497152,2.59043 -0.340157,1.56995 -0.654148,3.34923 -0.392489,2.14561 -0.601816,2.98292 l -0.287825,0.23549 q -4.395874,-0.0785 -6.41065,-0.0785 l -10.571031,-0.10466 q -6.044327,0 -9.4720618,0.15699 z M 50.318269,129.95607 q 0,-1.62229 1.020471,-2.77359 1.020471,-1.1513 2.616592,-1.1513 1.360628,0 2.145605,0.83731 0.784978,0.81114 0.784978,2.11944 0,1.59612 -0.941973,2.90441 -0.941973,1.28213 -2.642758,1.28213 -1.596121,0 -2.302601,-0.9158 -0.680314,-0.91581 -0.680314,-2.3026 z m -8.216098,15.85654 -0.523318,-0.91581 0.05233,-0.34015 q 4.605201,-3.58473 7.169461,-5.07619 2.590426,-1.49146 4.029551,-1.49146 0.654148,0 1.125135,0.57565 0.470986,0.54949 0.470986,1.41296 0,1.1513 -0.418654,2.90442 -0.392489,1.75312 -1.700785,6.64614 -2.276435,8.42543 -2.276435,9.75989 0,0.36632 0.209328,0.65415 0.235493,0.26166 0.523318,0.26166 0.784977,0 4.186547,-2.43343 l 0.313991,0.0262 0.57565,1.04664 -0.104664,0.34016 q -1.831614,1.30829 -4.369708,3.00908 -2.538094,1.67461 -3.637063,2.09327 -1.072802,0.41865 -1.883946,0.41865 -1.02047,0 -1.517623,-0.75881 -0.497152,-0.75881 -0.497152,-1.96244 0,-1.20363 0.287825,-2.72126 0.313991,-1.54379 1.308296,-5.31168 2.197937,-8.39926 2.197937,-9.89072 0,-0.73264 -0.601816,-0.73264 -0.994305,0 -4.55287,2.51193 z m 3.558565,19.46744 z m 14.966907,-0.70648 -0.523319,-0.75881 q 0.02617,-0.10466 0.627982,-2.01477 1.28213,-4.10805 2.511928,-9.83839 1.255964,-5.73033 1.255964,-7.66661 0,-0.52332 -0.235493,-0.83731 -0.235493,-0.34016 -0.549484,-0.34016 -0.287825,0 -0.784978,0.34016 -0.497152,0.31399 -2.956748,2.1456 l -0.366323,-0.0262 -0.523318,-0.91581 0.02616,-0.36632 q 1.883947,-1.59612 4.395875,-3.50623 2.538094,-1.91012 3.71556,-2.40727 1.203632,-0.49715 1.98861,-0.49715 0.680314,0 1.046636,0.49715 0.392489,0.49715 0.392489,1.17747 0,0.81114 -0.366323,2.61659 -0.366323,1.80545 -2.145605,9.60289 3.427735,-6.38448 7.718946,-10.12621 4.29121,-3.76789 6.960134,-3.76789 0.811143,0 1.334462,0.60181 0.523318,0.57565 0.523318,1.51763 0,0.75881 -0.235493,2.1456 -0.235494,1.3868 -0.889642,4.00339 l -1.439125,5.62567 q 3.323072,-6.61998 7.875941,-10.17854 4.55287,-3.58473 7.457287,-3.58473 0.941973,0 1.412959,0.73264 0.470987,0.73265 0.470987,1.83162 0,1.85778 -0.968139,5.54717 -3.009081,11.22518 -3.009081,13.16146 0,0.88964 0.601816,0.88964 0.70648,0 4.003386,-2.40726 l 0.313993,0.0262 0.57565,1.02047 -0.0785,0.34016 q -4.369708,3.19224 -6.436816,4.36971 -2.067107,1.17746 -3.375403,1.17746 -0.889641,0 -1.439125,-0.68031 -0.523319,-0.68031 -0.523319,-1.64845 0,-1.17747 0.444821,-3.27074 0.470986,-2.09328 1.648453,-6.59381 1.072802,-4.16038 1.360627,-5.65184 0.313991,-1.51763 0.313991,-2.3026 0,-1.2298 -0.837309,-1.2298 -0.627982,0 -1.85778,0.75881 -1.229798,0.75881 -3.061412,2.82592 -1.831615,2.04094 -3.27074,4.73603 -1.41296,2.66892 -2.459596,6.80314 -1.046637,4.10805 -1.046637,5.36401 -1.883946,0 -5.547175,0.75881 l -0.627982,-0.75881 q 1.491458,-3.76789 3.035247,-10.4402 1.569955,-6.69847 1.569955,-9.00107 0,-0.54949 -0.261659,-0.83731 -0.235494,-0.28783 -0.601816,-0.28783 -0.680314,0 -1.98861,0.83731 -1.28213,0.83731 -3.166076,3.29691 -1.85778,2.45959 -3.218408,5.07618 -1.334462,2.59043 -2.171771,6.149 -0.811144,3.53239 -0.889641,4.94535 -1.700785,0 -5.730336,1.02047 z m 43.304587,-19.91226 0.0262,-0.36632 q 2.04094,-1.72695 4.26504,-3.40157 2.22411,-1.67462 3.45391,-2.35493 1.22979,-0.68032 2.17177,-0.68032 1.64845,0 1.64845,1.75312 0,0.94197 -0.49715,3.2969 -0.47099,2.35494 -1.51763,6.43682 2.17178,-3.40157 3.89873,-5.39018 1.75311,-2.01477 4.70986,-3.97722 2.98292,-1.98861 5.31168,-1.98861 0.96814,0 1.62229,0.65415 0.68031,0.62798 1.09897,2.35493 0.41865,1.70079 0.41865,3.42774 0,3.21841 -1.28213,7.16946 -1.28213,3.95105 -2.61659,5.78267 -1.1513,1.62228 -3.87256,3.50623 -2.72125,1.85778 -4.55286,2.72126 -1.80545,0.86347 -4.26505,0.86347 -1.70078,0 -3.03525,-0.34016 -0.60181,2.51193 -1.43912,6.25366 -0.81114,3.74172 -0.94197,4.57903 -0.13083,0.83731 -0.20933,2.43343 -0.62798,0.0262 -3.11375,0.47099 -2.48576,0.47099 -2.85208,0.65415 l -0.54949,-0.41866 2.3811,-9.00107 q 1.2298,-4.99769 3.00908,-13.42312 1.80545,-8.45159 2.09328,-10.46636 0.0785,-0.54949 0.0785,-0.94198 0,-0.49715 -0.2355,-0.81114 -0.23549,-0.34016 -0.54948,-0.34016 -0.31399,0 -0.96814,0.44482 -0.65415,0.41866 -2.77359,2.04094 l -0.36632,-0.0262 z m 7.61429,15.75188 q 2.53809,1.41296 5.05002,1.41296 1.20363,0 2.1456,-0.52332 0.96814,-0.54948 1.88395,-2.04094 0.94197,-1.49145 1.75312,-4.02955 0.83731,-2.53809 1.38679,-4.91919 0.57565,-2.3811 0.57565,-4.89303 0,-1.67462 -0.31399,-2.35493 -0.28783,-0.70648 -1.02047,-0.70648 -0.73265,0 -2.14561,0.73265 -1.38679,0.73264 -3.08758,2.64275 -1.67461,1.88395 -2.98291,4.34355 -1.3083,2.43343 -1.77928,4.05571 -0.44482,1.62229 -1.46529,6.27982 z m 48.04062,-2.40726 0.57565,1.02047 -0.10466,0.34016 q -4.73604,3.48006 -6.51532,4.4482 -1.75311,0.96814 -2.93058,0.96814 -0.83731,0 -1.33446,-0.70648 -0.47099,-0.70648 -0.47099,-1.77928 0,-1.09897 0.41866,-3.19224 0.41865,-2.09328 1.80544,-7.61428 -4.39587,7.53578 -7.9021,10.4402 -3.50624,2.87825 -5.73034,2.87825 -1.20363,0 -2.09327,-1.07281 -0.86348,-1.0728 -0.86348,-3.87255 0,-2.4596 0.73265,-5.73034 0.73264,-3.27074 2.06711,-6.61997 0.68031,-1.67462 1.59612,-2.69509 0.94197,-1.04664 4.02955,-3.29691 3.08758,-2.25027 4.36971,-2.72125 1.30829,-0.47099 2.93058,-0.47099 1.1513,0 2.72125,0.36632 1.56996,0.34016 2.87826,1.02047 l 2.40726,-1.41296 0.86348,0.62799 q -0.65415,1.54378 -1.59613,5.70417 l -1.93627,8.84408 q -1.02047,4.70986 -1.02047,5.7565 0,1.02047 0.68031,1.02047 0.83731,0 4.10805,-2.25027 z m -7.35262,-15.62105 q -2.32877,-1.17747 -4.29121,-1.17747 -2.04095,0 -3.29691,1.62229 -1.25596,1.62228 -2.72126,7.22179 -1.46529,5.59951 -1.46529,8.2946 0,1.96244 1.04664,1.96244 1.09897,0 3.92489,-3.29691 2.82592,-3.2969 4.63137,-7.30029 1.83161,-4.00338 2.17177,-7.32645 z m -1.85778,-5.96583 z m -6.77698,28.861 z"
       id="text2"
       style="font-style:italic;font-weight:bold;font-size:53.5878px;font-family:'Palatino Linotype';-inkscape-font-specification:'Palatino Linotype, Bold Italic';fill:#1a1a1a;stroke-width:2.51193;fill-opacity:1"
       aria-label="Limpa" />
    <path
       d="m 142.15243,119.16269 q 0.0694,-0.007 0.32643,-0.0208 0.56952,-0.0208 0.6737,-0.0834 0.11113,-0.0694 0.20836,-0.26392 0.0972,-0.20141 0.41672,-2.02804 l 0.58341,-3.3824 0.47923,-2.81981 q -0.94457,0 -1.41685,0.0208 -0.46534,0.0139 -0.73621,0.0764 -0.26392,0.0556 -0.31948,0.0972 -0.0556,0.0417 -0.14586,0.20141 -0.0833,0.15975 -0.19447,0.58341 -0.11112,0.42367 -0.17363,0.69454 l -0.0625,0.0556 h -0.40283 l -0.0486,-0.0625 q 0.17364,-0.93762 0.34032,-2.37531 l 0.0833,-0.0833 q 0.1528,0 0.95151,0.0417 1.50715,0.0695 3.06291,0.0695 0.95151,0 2.29891,-0.0278 1.35435,-0.0347 1.88914,-0.0833 l 0.10418,0.11807 q -0.40283,1.98637 -0.42367,2.34753 l -0.0625,0.0556 h -0.40978 l -0.0486,-0.0556 q 0.0625,-0.56952 0.0625,-1.0418 0,-0.36811 -0.0833,-0.46534 -0.0833,-0.10418 -0.50702,-0.13891 -0.41672,-0.0347 -1.1182,-0.0347 l -0.77788,0.007 -0.55563,2.92399 -0.63203,3.71577 q -0.14585,0.89595 -0.18752,1.29184 -0.007,0.12502 -0.007,0.21531 0,0.18752 0.11113,0.2917 0.11807,0.0972 0.45839,0.11807 l 0.73621,0.0417 0.0486,0.0556 -0.0417,0.34727 -0.0625,0.0625 q -0.81261,-0.0486 -2.28503,-0.0486 -1.08347,0 -2.18084,0.0486 l -0.0486,-0.0556 0.0347,-0.34727 z m 17.80791,-9.38319 q 1.02096,0.0695 1.18071,0.0695 l 1.96553,-0.0695 0.0556,0.0556 -0.0417,0.36811 -0.0833,0.0625 q -0.0694,0.007 -0.34727,0.0347 -0.27087,0.0278 -0.41672,0.0695 -0.14585,0.0417 -0.23614,0.1528 -0.0903,0.10418 -0.15974,0.32643 -0.0625,0.2153 -0.17364,0.80566 l -0.97235,5.59102 q -0.20141,1.24322 -0.20141,1.46547 0,0.20141 0.11807,0.28476 0.11807,0.0833 0.46534,0.11112 l 0.65286,0.0625 0.0486,0.0556 -0.0625,0.35422 -0.0694,0.0417 q -1.09043,-0.0417 -2.13223,-0.0417 -0.98624,0 -2.07666,0.0417 l -0.0556,-0.0556 0.0417,-0.34033 0.0556,-0.0417 q 0.76399,-0.11112 0.91679,-0.1528 0.15279,-0.0486 0.25697,-0.40977 0.11113,-0.36116 0.33338,-1.68773 l 0.52785,-3.08374 0.39588,-2.57673 q -2.92399,4.68118 -4.4103,7.34125 l -0.68065,1.22239 h -0.38199 l -0.88901,-3.65326 -1.1182,-4.41031 -1.05569,4.25056 q -0.56258,2.31975 -0.56258,2.65313 0,0.25698 0.11807,0.35421 0.12502,0.0903 1.00013,0.13891 l 0.0625,0.0556 -0.0486,0.34033 -0.0556,0.0556 q -0.72232,-0.0417 -1.50714,-0.0417 -0.79177,0 -1.47936,0.0417 l -0.0556,-0.0556 0.0278,-0.34033 0.0694,-0.0556 q 0.6737,-0.0764 0.78483,-0.20836 0.11807,-0.13196 0.40977,-1.1182 0.29171,-0.99319 0.72926,-2.6323 l 0.80567,-3.04206 q 0.28476,-1.09737 0.28476,-1.35435 0,-0.38199 -0.382,-0.4445 -0.37505,-0.0625 -0.93762,-0.0903 l -0.0417,-0.0764 0.0417,-0.35421 0.0556,-0.0556 q 1.06959,0.0417 1.62521,0.0417 0.62509,0 1.43769,-0.0417 l 0.7501,3.11152 1.0557,4.18806 q 0.58341,-0.94457 0.70843,-1.15293 l 2.70174,-4.52838 z"
       id="text3"
       style="font-style:italic;font-weight:bold;font-size:14.2241px;font-family:'Palatino Linotype';-inkscape-font-specification:'Palatino Linotype, Bold Italic';fill:#1a1a1a;stroke-width:0.666754;fill-opacity:1"
       aria-label="TM" />
    <text
       xml:space="preserve"
       style="font-style:italic;font-variant:normal;font-weight:bold;font-stretch:normal;font-size:53.5878px;font-family:'Palatino Linotype';-inkscape-font-specification:'Palatino Linotype, Bold Italic';font-variant-ligatures:normal;font-variant-caps:normal;font-variant-numeric:normal;font-variant-east-asian:normal;fill:#427791;stroke-width:2.51193"
       x="-268.50281"
       y="255.64987"
       id="text4"><tspan
         sodipodi:role="line"
         id="tspan4"
         style="font-style:italic;font-variant:normal;font-weight:bold;font-stretch:normal;font-size:53.5878px;font-family:'Palatino Linotype';-inkscape-font-specification:'Palatino Linotype, Bold Italic';font-variant-ligatures:normal;font-variant-caps:normal;font-variant-numeric:normal;font-variant-east-asian:normal;stroke-width:2.51193"
         x="-268.50281"
         y="255.64987">Fonte</tspan></text>
    <text
       xml:space="preserve"
       style="font-style:italic;font-variant:normal;font-weight:bold;font-stretch:normal;font-size:53.5878px;font-family:'Palatino Linotype';-inkscape-font-specification:'Palatino Linotype, Bold Italic';font-variant-ligatures:normal;font-variant-caps:normal;font-variant-numeric:normal;font-variant-east-asian:normal;fill:#427791;stroke-width:2.51193"
       x="-257.73047"
       y="300.48663"
       id="text5"><tspan
         sodipodi:role="line"
         id="tspan5"
         style="font-style:italic;font-variant:normal;font-weight:bold;font-stretch:normal;font-size:53.5878px;font-family:'Palatino Linotype';-inkscape-font-specification:'Palatino Linotype, Bold Italic';font-variant-ligatures:normal;font-variant-caps:normal;font-variant-numeric:normal;font-variant-east-asian:normal;stroke-width:2.51193"
         x="-257.73047"
         y="300.48663">Limpa</tspan></text>
    <text
       xml:space="preserve"
       style="font-style:italic;font-variant:normal;font-weight:bold;font-stretch:normal;font-size:14.2241px;font-family:'Palatino Linotype';-inkscape-font-specification:'Palatino Linotype, Bold Italic';font-variant-ligatures:normal;font-variant-caps:normal;font-variant-numeric:normal;font-variant-east-asian:normal;fill:#427791;stroke-width:0.666754"
       x="-124.52559"
       y="256.48676"
       id="text6"><tspan
         sodipodi:role="line"
         id="tspan6"
         style="stroke-width:0.666754"
         x="-124.52559"
         y="256.48676">TM</tspan></text>
  </g>
</svg>
