<?xml version="1.0" encoding="UTF-8" standalone="no"?>
<!-- Created with Inkscape (http://www.inkscape.org/) -->

<svg
   width="499.99997"
   height="100"
   viewBox="0 0 132.29166 26.458333"
   version="1.1"
   id="svg1"
   xml:space="preserve"
   inkscape:version="1.3 (0e150ed6c4, 2023-07-21)"
   sodipodi:docname="icons.svg"
   xmlns:inkscape="http://www.inkscape.org/namespaces/inkscape"
   xmlns:sodipodi="http://sodipodi.sourceforge.net/DTD/sodipodi-0.dtd"
   xmlns="http://www.w3.org/2000/svg"
   xmlns:svg="http://www.w3.org/2000/svg"><sodipodi:namedview
     id="namedview1"
     pagecolor="#ffffff"
     bordercolor="#000000"
     borderopacity="0.25"
     inkscape:showpageshadow="2"
     inkscape:pageopacity="0.0"
     inkscape:pagecheckerboard="0"
     inkscape:deskcolor="#d1d1d1"
     inkscape:document-units="px"
     showguides="true"
     inkscape:zoom="1.0005561"
     inkscape:cx="273.84771"
     inkscape:cy="95.446922"
     inkscape:window-width="1920"
     inkscape:window-height="1009"
     inkscape:window-x="1912"
     inkscape:window-y="-8"
     inkscape:window-maximized="1"
     inkscape:current-layer="layer1"><inkscape:page
       x="0"
       y="0"
       width="132.29166"
       height="26.458332"
       id="page71"
       margin="0"
       bleed="0" /></sodipodi:namedview><defs
     id="defs1"><inkscape:path-effect
       effect="fillet_chamfer"
       id="path-effect109"
       is_visible="true"
       lpeversion="1"
       nodesatellites_param="F,0,0,1,0,0,0,1 @ F,0,0,1,0,0.89591423,0,1 @ F,0,0,1,0,1.1808107,0,1 @ F,0,0,1,0,0,0,1 @ F,0,0,1,0,0,0,1 @ F,0,0,1,0,0,0,1 @ F,0,0,1,0,1.1777575,0,1 @ F,0,0,1,0,1.0887076,0,1 @ F,0,0,1,0,0,0,1 @ F,0,0,1,0,0,0,1"
       radius="0"
       unit="px"
       method="auto"
       mode="F"
       chamfer_steps="1"
       flexible="false"
       use_knot_distance="true"
       apply_no_radius="true"
       apply_with_radius="true"
       only_selected="false"
       hide_knots="false" /><inkscape:path-effect
       effect="spiro"
       id="path-effect69"
       is_visible="true"
       lpeversion="1" /><inkscape:path-effect
       effect="spiro"
       id="path-effect60"
       is_visible="true"
       lpeversion="1" /><inkscape:path-effect
       effect="spiro"
       id="path-effect35"
       is_visible="true"
       lpeversion="1" /><inkscape:path-effect
       effect="spiro"
       id="path-effect21"
       is_visible="true"
       lpeversion="1" /><inkscape:path-effect
       effect="spiro"
       id="path-effect20"
       is_visible="true"
       lpeversion="1" /><inkscape:path-effect
       effect="spiro"
       id="path-effect19"
       is_visible="true"
       lpeversion="1" /><inkscape:path-effect
       effect="spiro"
       id="path-effect17"
       is_visible="true"
       lpeversion="1" /></defs><g
     inkscape:label="Camada 1"
     inkscape:groupmode="layer"
     id="layer1"><g
       id="g72"
       style="stroke-width:1.05833;stroke-dasharray:none;stroke:#1f536c;stroke-opacity:1"><g
         id="g69"
         transform="translate(0.09921712,0.13229164)"
         style="stroke-width:1.05833;stroke-dasharray:none;stroke:#1f536c;stroke-opacity:1"><path
           style="fill:none;stroke:#1f536c;stroke-width:1.05833;stroke-linecap:round;stroke-linejoin:round;stroke-dasharray:none;stroke-opacity:1"
           d="M 14.873549,3.4143682 C 13.805178,3.0470175 12.682145,2.8341688 11.552725,2.8063301 9.5849866,2.757828 7.5668978,3.3026495 6.0336096,4.5369001 4.2685842,5.9576921 3.2776555,8.1822664 2.9934188,10.430193 c -0.2017962,1.595934 -0.067689,3.264153 0.6080382,4.723989 0.7258885,1.568204 2.0176493,2.793999 3.3208237,3.928862 0.6928037,0.603325 1.4203995,1.205889 2.2918361,1.496709 0.2878888,0.09608 0.5931207,0.156629 0.8948642,0.124048 0.301743,-0.03258 0.600693,-0.166614 0.788934,-0.404681 0.145922,-0.184547 0.217336,-0.41971 0.236569,-0.65419 0.01923,-0.23448 -0.01063,-0.470165 -0.04948,-0.702202 -0.185493,-1.107822 -0.576699,-2.17422 -1.07576,-3.180508 C 9.7028451,15.144409 9.3552964,14.546791 9.0746412,13.916868 8.793986,13.286944 8.5796066,12.616219 8.5593064,11.926902 8.5332949,11.043647 8.8348975,10.162749 9.3544333,9.4479776 9.8041994,8.8291946 10.420532,8.3264392 11.131776,8.0448128 c 1.034739,-0.4097184 2.212346,-0.3336734 3.274051,0 1.033438,0.3247898 2.0079,0.8867885 3.086963,0.9822153 0.669706,0.059225 1.374658,-0.079047 1.911514,-0.4837688 C 19.672732,8.3408984 19.894679,8.0743411 20.031583,7.7673219 20.168487,7.4603028 20.21836,7.1128065 20.158804,6.7819642 20.067123,6.272659 19.725826,5.8362346 19.316452,5.5196749 18.907078,5.2031153 18.429471,4.9895634 17.960512,4.770761 16.941416,4.2952814 15.937001,3.7800275 14.873549,3.4143682 Z"
           id="path17"
           transform="translate(0.09354433,-0.09354433)"
           inkscape:original-d="M 14.873549,3.4143682 C 13.844561,2.9622371 12.659666,3.0090094 11.552725,2.8063301 10.445784,2.6036506 7.8733146,3.9600436 6.0336096,4.5369001 4.1939043,5.1137568 4.0068156,8.4657622 2.9934188,10.430193 c -1.0133971,1.964431 0.4053586,3.149326 0.6080382,4.723989 0.2026793,1.574663 2.2138825,2.619241 3.3208237,3.928862 1.1069412,1.309621 1.5278907,0.997806 2.2918361,1.496709 0.7639455,0.498903 1.1225322,-0.187088 1.6837982,-0.280633 0.561266,-0.09354 0.124726,-0.904262 0.187089,-1.356392 0.06236,-0.452131 -0.717174,-2.120339 -1.07576,-3.180508 C 9.6506571,14.702051 9.042619,13.205342 8.5593064,11.926902 8.0759942,10.648463 9.0893909,10.274286 9.3544333,9.4479776 9.6194757,8.6216695 10.539328,8.5125345 11.131776,8.0448128 c 0.592447,-0.4677217 2.182701,0 3.274051,0 1.091351,0 2.057976,0.6548101 3.086963,0.9822153 1.028988,0.3274052 1.777343,-1.4967092 2.666014,-2.2450639 C 21.047475,6.0336096 18.693276,5.441162 17.960512,4.770761 17.227748,4.10036 15.902537,3.8664991 14.873549,3.4143682 Z"
           inkscape:path-effect="#path-effect17" /><path
           id="path58"
           style="fill:none;stroke:#1f536c;stroke-width:1.05833;stroke-linecap:round;stroke-linejoin:round;stroke-dasharray:none;stroke-opacity:1"
           inkscape:transform-center-x="-0.8267261"
           inkscape:transform-center-y="1.4405319"
           d="M 17.521892,4.426583 18.884635,2.0174479" /><path
           id="path56"
           style="fill:none;stroke:#1f536c;stroke-width:1.05833;stroke-linecap:round;stroke-linejoin:round;stroke-dasharray:none;stroke-opacity:1"
           inkscape:transform-center-x="-0.8267261"
           inkscape:transform-center-y="1.4405319"
           d="m 13.643451,2.9509917 c 0.415652,-0.6982975 0.82299,-1.3924389 1.239361,-2.09109588" /><path
           id="path54"
           style="fill:none;stroke:#1f536c;stroke-width:1.05833;stroke-linecap:round;stroke-linejoin:round;stroke-dasharray:none;stroke-opacity:1"
           inkscape:transform-center-x="-0.8267261"
           inkscape:transform-center-y="1.4405319"
           d="M 10.991602,2.7197259 10.55026,0.396875" /><path
           id="path52"
           style="fill:none;stroke:#1f536c;stroke-width:1.05833;stroke-linecap:round;stroke-linejoin:round;stroke-dasharray:none;stroke-opacity:1"
           inkscape:transform-center-x="-0.8267261"
           inkscape:transform-center-y="1.4405319"
           d="M 7.243129,3.7087617 6.4822916,1.5213541" /><path
           id="path50"
           style="fill:none;stroke:#1f536c;stroke-width:1.05833;stroke-linecap:round;stroke-linejoin:round;stroke-dasharray:none;stroke-opacity:1"
           inkscape:transform-center-x="-0.8267261"
           inkscape:transform-center-y="1.4405319"
           d="M 5.0680012,5.5539816 C 4.2313662,4.8941026 3.1088541,4.0348958 3.1088541,4.0348958" /><path
           id="path48"
           style="fill:none;stroke:#1f536c;stroke-width:1.05833;stroke-linecap:round;stroke-linejoin:round;stroke-dasharray:none;stroke-opacity:1"
           inkscape:transform-center-x="-0.8267261"
           inkscape:transform-center-y="1.4405319"
           d="M 3.6044992,8.1440305 1.1244792,7.1768228" /><path
           id="path46"
           style="fill:none;stroke:#1f536c;stroke-width:1.05833;stroke-linecap:round;stroke-linejoin:round;stroke-dasharray:none;stroke-opacity:1"
           inkscape:transform-center-x="-0.8267261"
           inkscape:transform-center-y="1.4405319"
           d="m 3.0023999,11.564248 -2.57245199,-0.0218" /><path
           id="path44"
           style="fill:none;stroke:#1f536c;stroke-width:1.05833;stroke-linecap:round;stroke-linejoin:round;stroke-dasharray:none;stroke-opacity:1"
           inkscape:transform-center-x="-0.8267261"
           inkscape:transform-center-y="1.4405319"
           d="M 3.272216,13.869062 0.76067707,15.015104" /><path
           id="path42"
           style="fill:none;stroke:#1f536c;stroke-width:1.05833;stroke-linecap:round;stroke-linejoin:round;stroke-dasharray:none;stroke-opacity:1"
           inkscape:transform-center-x="-0.8267261"
           inkscape:transform-center-y="1.4405319"
           d="M 4.9253925,16.935045 2.3481771,18.719271" /><path
           id="path40"
           style="fill:none;stroke:#1f536c;stroke-width:1.05833;stroke-linecap:round;stroke-linejoin:round;stroke-dasharray:none;stroke-opacity:1"
           inkscape:transform-center-x="-0.8267261"
           inkscape:transform-center-y="1.4405319"
           d="M 7.555967,19.446785 6.316927,21.66276" /></g><g
         id="g70"
         transform="rotate(-4.0872274,29.837902,21.037498)"
         style="stroke-width:1.05833;stroke-dasharray:none;stroke:#1f536c;stroke-opacity:1"><g
           id="g71"
           transform="translate(0.43125251,-0.41141658)"
           style="stroke-width:1.05833;stroke-dasharray:none;stroke:#1f536c;stroke-opacity:1"><path
             style="fill:none;stroke:#1f536c;stroke-width:1.48592;stroke-linecap:round;stroke-linejoin:round;stroke-dasharray:none;stroke-opacity:1"
             d="M 14.873549,3.4143682 C 13.805178,3.0470175 12.682145,2.8341688 11.552725,2.8063301 9.5849866,2.757828 7.5668978,3.3026495 6.0336096,4.5369001 4.2685842,5.9576921 3.2776555,8.1822664 2.9934188,10.430193 c -0.2017962,1.595934 -0.067689,3.264153 0.6080382,4.723989 0.7258885,1.568204 2.0176493,2.793999 3.3208237,3.928862 0.6928037,0.603325 1.4203995,1.205889 2.2918361,1.496709 0.2878888,0.09608 0.5931207,0.156629 0.8948642,0.124048 0.301743,-0.03258 0.600693,-0.166614 0.788934,-0.404681 0.145922,-0.184547 0.217336,-0.41971 0.236569,-0.65419 0.01923,-0.23448 -0.01063,-0.470165 -0.04948,-0.702202 -0.185493,-1.107822 -0.576699,-2.17422 -1.07576,-3.180508 C 9.7028451,15.144409 9.3552964,14.546791 9.0746412,13.916868 8.793986,13.286944 8.5796066,12.616219 8.5593064,11.926902 8.5332949,11.043647 8.8348975,10.162749 9.3544333,9.4479776 9.8041994,8.8291946 10.420532,8.3264392 11.131776,8.0448128 c 1.034739,-0.4097184 2.212346,-0.3336734 3.274051,0 1.033438,0.3247898 2.0079,0.8867885 3.086963,0.9822153 0.669706,0.059225 1.374658,-0.079047 1.911514,-0.4837688 C 19.672732,8.3408984 19.894679,8.0743411 20.031583,7.7673219 20.168487,7.4603028 20.21836,7.1128065 20.158804,6.7819642 20.067123,6.272659 19.725826,5.8362346 19.316452,5.5196749 18.907078,5.2031153 18.429471,4.9895634 17.960512,4.770761 16.941416,4.2952814 15.937001,3.7800275 14.873549,3.4143682 Z"
             id="path18"
             inkscape:path-effect="#path-effect19"
             inkscape:original-d="M 14.873549,3.4143682 C 13.844561,2.9622371 12.659666,3.0090094 11.552725,2.8063301 10.445784,2.6036506 7.8733146,3.9600436 6.0336096,4.5369001 4.1939043,5.1137568 4.0068156,8.4657622 2.9934188,10.430193 c -1.0133971,1.964431 0.4053586,3.149326 0.6080382,4.723989 0.2026793,1.574663 2.2138825,2.619241 3.3208237,3.928862 1.1069412,1.309621 1.5278907,0.997806 2.2918361,1.496709 0.7639455,0.498903 1.1225322,-0.187088 1.6837982,-0.280633 0.561266,-0.09354 0.124726,-0.904262 0.187089,-1.356392 0.06236,-0.452131 -0.717174,-2.120339 -1.07576,-3.180508 C 9.6506571,14.702051 9.042619,13.205342 8.5593064,11.926902 8.0759942,10.648463 9.0893909,10.274286 9.3544333,9.4479776 9.6194757,8.6216695 10.539328,8.5125345 11.131776,8.0448128 c 0.592447,-0.4677217 2.182701,0 3.274051,0 1.091351,0 2.057976,0.6548101 3.086963,0.9822153 1.028988,0.3274052 1.777343,-1.4967092 2.666014,-2.2450639 C 21.047475,6.0336096 18.693276,5.441162 17.960512,4.770761 17.227748,4.10036 15.902537,3.8664991 14.873549,3.4143682 Z"
             transform="matrix(-0.63730133,0.31801183,-0.31801183,-0.63730133,27.751834,20.869134)" /><path
             id="path67"
             style="fill:none;stroke:#1f536c;stroke-width:1.05833;stroke-linecap:round;stroke-linejoin:round;stroke-dasharray:none;stroke-opacity:1"
             inkscape:transform-center-x="-0.40145536"
             inkscape:transform-center-y="1.611658"
             d="m 23.521043,11.188035 -2.251188,1.774184" /><path
             id="path65"
             style="fill:none;stroke:#1f536c;stroke-width:1.05833;stroke-linecap:round;stroke-linejoin:round;stroke-dasharray:none;stroke-opacity:1"
             inkscape:transform-center-x="-0.40145521"
             inkscape:transform-center-y="1.6116581"
             d="m 25.847833,16.412531 -2.956934,0.291838" /><path
             id="path63"
             style="fill:none;stroke:#1f536c;stroke-width:1.05833;stroke-linecap:round;stroke-linejoin:round;stroke-dasharray:none;stroke-opacity:1"
             inkscape:transform-center-x="-0.40145499"
             inkscape:transform-center-y="1.6116577"
             d="M 25.441948,21.571222 22.379797,20.067336" /><path
             id="path69"
             style="fill:none;stroke:#1f536c;stroke-width:1.05833;stroke-linecap:round;stroke-linejoin:round;stroke-dasharray:none;stroke-opacity:1"
             inkscape:transform-center-x="-0.40145539"
             inkscape:transform-center-y="1.6116581"
             d="m 22.493669,24.964194 -2.003024,-2.78228" /><path
             id="path60"
             style="fill:none;stroke:#1f536c;stroke-width:1.05833;stroke-linecap:round;stroke-linejoin:round;stroke-dasharray:none;stroke-opacity:1"
             inkscape:transform-center-x="-0.4014551"
             inkscape:transform-center-y="1.6116579"
             d="m 17.053718,25.470356 -0.437115,-1.98949"
             sodipodi:nodetypes="cc" /></g></g></g><g
       id="g109"
       style="stroke-width:1.05833;stroke-dasharray:none;stroke:#1f536c;stroke-opacity:1"
       transform="translate(26.458333)"><path
         id="path85"
         style="fill:none;stroke:#1f536c;stroke-width:1.05833;stroke-linecap:round;stroke-linejoin:round;stroke-dasharray:none;stroke-opacity:1"
         inkscape:transform-center-x="2.6779688"
         inkscape:transform-center-y="10.160236"
         d="m 10.61189,25.929167 c 0,0 -1.2848116,-2.167039 -0.352897,-4.399334 m 15.670174,-5.683672 c 0,0 -2.175812,1.290031 -4.412846,0.347334 M 15.846442,0.52916503 c 0,0 1.279644,2.15832297 0.3585,4.38585237 M 0.52916503,10.612173 c 0,0 2.17581167,-1.290032 4.41284567,-0.347334 M 4.612538,22.919193 c 0,0 -0.02925,-2.528498 1.9047914,-3.994589 m 16.4017226,2.920945 c 0,0 -2.508688,0.02907 -3.977246,-1.882001 M 21.845794,3.5391391 c 0,0 0.02919,2.5235699 -1.89914,3.9902983 M 3.5392806,4.6127828 c 0,0 2.5088855,-0.029076 3.9774179,1.8822279 M 0.92200449,17.312785 c 0,0 1.24693921,-2.218657 3.67024811,-2.509941 M 17.312539,25.536187 c 0,0 -2.19035,-1.230987 -2.50405,-3.623826 M 25.536328,9.1455491 c 0,0 -1.246939,2.2186569 -3.670248,2.5099399 M 9.1457927,0.92214603 c 0,0 2.1781983,1.22415767 2.5013923,3.60391057" /><ellipse
         style="fill:none;stroke:#1f536c;stroke-width:1.05833;stroke-linecap:round;stroke-linejoin:round;stroke-dasharray:none;stroke-opacity:1"
         id="path72"
         cx="13.229166"
         cy="13.229166"
         rx="8.6318007"
         ry="8.6787128" /><rect
         style="font-variation-settings:normal;opacity:1;fill:none;fill-opacity:1;stroke:#1f536c;stroke-width:1.05833;stroke-linecap:round;stroke-linejoin:round;stroke-miterlimit:4;stroke-dasharray:none;stroke-dashoffset:0;stroke-opacity:1;stop-color:#000000;stop-opacity:1"
         id="rect107"
         width="7.8771567"
         height="2.3128328"
         x="-8.3916588"
         y="12.488882"
         rx="1.1564164"
         ry="1.1564164"
         transform="rotate(-59.663689)" /><circle
         style="font-variation-settings:normal;opacity:1;fill:none;fill-opacity:1;stroke:#1f536c;stroke-width:1.05833;stroke-linecap:round;stroke-linejoin:round;stroke-miterlimit:4;stroke-dasharray:none;stroke-dashoffset:0;stroke-opacity:1"
         id="path107"
         cx="11.978954"
         cy="17.345367"
         r="1.9653462" /><path
         id="path108"
         style="font-variation-settings:normal;opacity:1;fill:none;fill-opacity:1;stroke:#1f536c;stroke-width:2.05192;stroke-linecap:round;stroke-linejoin:round;stroke-miterlimit:4;stroke-dasharray:none;stroke-dashoffset:0;stroke-opacity:1"
         d="m 54.964603,30.286523 c -1.372903,0.003 -2.62036,0.702262 -3.327104,1.806099 -0.266196,0.415763 -0.791613,0.804078 -1.286413,0.804078 h -0.267834 c -0.652144,0 -1.368148,-0.515324 -1.80457,-0.995276 -0.617011,-0.678554 -1.501451,-1.085615 -2.453056,-1.085734 -1.831947,-1.6e-5 -3.317057,1.486713 -3.31711,3.320727 5.3e-5,1.834015 1.485163,3.320744 3.31711,3.320728 0.950167,-0.0023 1.832597,-0.410093 2.448032,-1.088395 0.43479,-0.479204 1.148848,-0.993132 1.799305,-0.993132 h 0.08533 c 0.601277,0 1.239037,0.475978 1.587049,0.963805 0.72151,1.011377 1.91364,1.643938 3.219262,1.646888 2.173863,-2e-6 3.93614,-1.723642 3.936194,-3.849894 -5.4e-5,-2.126252 -1.762331,-3.849892 -3.936194,-3.849894 z"
         inkscape:path-effect="#path-effect109"
         inkscape:original-d="M 54.964603,30.286523 A 3.9361973,3.8499889 0 0 0 51.247,32.8967 h -2.344559 a 3.3170803,3.3208239 0 0 0 -3.076815,-2.08101 3.3170803,3.3208239 0 0 0 -3.31711,3.320727 3.3170803,3.3208239 0 0 0 3.31711,3.320728 3.3170803,3.3208239 0 0 0 3.06958,-2.081527 H 51.247 a 3.9361973,3.8499889 0 0 0 3.717603,2.610693 3.9361973,3.8499889 0 0 0 3.936194,-3.849894 3.9361973,3.8499889 0 0 0 -3.936194,-3.849894 z"
         transform="matrix(-0.1673773,-0.49668897,0.48234379,-0.1580352,8.9650046,42.972976)" /></g><g
       id="g110"
       style="stroke-width:1.05833;stroke-dasharray:none;stroke:#1f536c;stroke-opacity:1"
       transform="translate(133.83417,-2.3799265)"><path
         id="path109"
         style="font-variation-settings:normal;opacity:1;fill:none;fill-opacity:1;stroke:#1f536c;stroke-width:1.05833;stroke-linecap:round;stroke-linejoin:round;stroke-miterlimit:4;stroke-dasharray:none;stroke-dashoffset:0;stroke-opacity:1"
         d="m -73.594137,2.9090915 c -3.752524,8.27e-5 -6.794436,3.0698344 -6.794199,6.8563801 8.2e-5,3.7863184 1.069109,7.0528294 2.926648,9.9673424 2.335271,3.664086 5.455792,8.576218 9.773065,8.576281 4.317418,6.3e-5 7.438239,-4.912106 9.773642,-8.576281 1.857581,-2.914486 2.926565,-6.181024 2.926648,-9.9673424 2.37e-4,-3.7865457 -3.041675,-6.8562974 -6.794199,-6.8563801 -2.444003,0.00699 -4.695971,1.3379807 -5.89743,3.4855838 -1.20441,-2.1528554 -3.464179,-3.4846748 -5.914175,-3.4855838 z"
         sodipodi:nodetypes="ccasacccc" /><path
         id="rect109"
         style="font-variation-settings:normal;opacity:1;fill:none;fill-opacity:1;stroke:#1f536c;stroke-width:1.05833;stroke-linecap:round;stroke-linejoin:round;stroke-miterlimit:4;stroke-dasharray:none;stroke-dashoffset:0;stroke-opacity:1"
         d="m -65.209254,7.9958905 c -0.919788,0.2464563 -1.461802,1.1852527 -1.215346,2.1050405 l 0.590232,2.202775 -2.202775,0.590233 c -0.919788,0.246456 -1.462168,1.185885 -1.215711,2.105672 0.246456,0.919788 1.185752,1.461668 2.105539,1.215212 l 2.202776,-0.590232 0.590231,2.202776 c 0.246457,0.919787 1.185253,1.461801 2.10504,1.215345 0.919788,-0.246456 1.461802,-1.185252 1.215346,-2.10504 l -0.590232,-2.202775 2.203275,-0.590366 c 0.919787,-0.246456 1.461802,-1.185252 1.215345,-2.10504 -0.246456,-0.919788 -1.185386,-1.462301 -2.105174,-1.215845 l -2.203274,0.590366 -0.590232,-2.2027759 c -0.246457,-0.9197875 -1.185253,-1.4618019 -2.10504,-1.2153456 z" /></g><g
       id="g118"
       transform="translate(79.374999)"
       style="stroke-width:1.05833;stroke-dasharray:none;stroke:#1f536c;stroke-opacity:1"><path
         id="path115"
         style="color:#000000;font-variation-settings:normal;opacity:1;fill:none;fill-opacity:1;stroke:#1f536c;stroke-width:1.05833;stroke-linecap:round;stroke-linejoin:round;stroke-miterlimit:4;stroke-dasharray:none;stroke-dashoffset:0;stroke-opacity:1;stop-color:#000000;stop-opacity:1"
         d="m 16.654478,24.882264 c 0.02154,-2.069571 0.04556,-4.158925 0.07267,-6.137672 0.02547,-1.859121 0.523199,-2.750402 1.20096,-3.435449 0.245788,-0.248431 0.539382,-0.46911 0.869198,-0.664042 l -2e-6,-5.7107627 v 0 c -1.595012,0.4673002 -3.252697,1.2612567 -4.630725,2.6541017 -1.627783,1.645286 -2.689941,4.117501 -2.730583,7.084322 -0.02907,2.122523 -0.05404,4.371349 -0.07668,6.58461" /><path
         id="path110"
         style="font-variation-settings:normal;opacity:1;fill:none;fill-opacity:1;stroke:#1f536c;stroke-width:1.05833;stroke-linecap:round;stroke-linejoin:round;stroke-miterlimit:4;stroke-dasharray:none;stroke-dashoffset:0;stroke-opacity:1"
         d="m 16.677308,23.078417 c 0.988296,-0.14883 1.897683,-1.037303 2.901858,-1.037303 1.095971,0 2.079031,1.058333 3.175,1.058333 1.095971,0 3.175001,-1.058333 3.175001,-1.058333" /><path
         id="path114"
         style="font-variation-settings:normal;opacity:1;fill:none;fill-opacity:1;stroke:#1f536c;stroke-width:1.05833;stroke-linecap:round;stroke-linejoin:round;stroke-miterlimit:4;stroke-dasharray:none;stroke-dashoffset:0;stroke-opacity:1"
         d="m 0.52916458,22.041114 c 0,0 2.07903002,1.058333 3.17500032,1.058333 1.0959703,0 2.0790298,-1.058333 3.1750002,-1.058333 1.0959703,0 2.0790305,1.058333 3.1749999,1.058333 0.459439,0 0.899036,-0.185986 1.335426,-0.402024" /><path
         style="font-variation-settings:normal;opacity:1;fill:none;fill-opacity:1;stroke:#1f536c;stroke-width:1.05833;stroke-linecap:round;stroke-linejoin:round;stroke-miterlimit:4;stroke-dasharray:none;stroke-dashoffset:0;stroke-opacity:1"
         d="m 4.6747995,17.317322 c 0.050501,-1.900745 -1.0433697,-2.250662 -0.93528,-3.45299 0.1078389,-1.199538 1.5244595,-1.9265 1.5244594,-3.132865 -10e-8,-1.2063647 -1.5244591,-1.9264977 -1.5244594,-3.1328632 0,-2.2440922 0.8468725,-1.6276466 0.9709804,-5.0203683"
         id="path111"
         sodipodi:nodetypes="caacc" /><path
         id="rect112"
         style="opacity:1;fill:none;stroke:#1f536c;stroke-width:1.05833;stroke-linecap:round;stroke-linejoin:round;stroke-dasharray:none;stroke-opacity:1"
         d="m 24.032801,7.1989103 v 2.430801 M 25.909065,5.2822425 H 24.032682 V 4.1169389 c 0,-0.7139028 -0.57439,-1.2888102 -1.288293,-1.2888102 h -2.658753 c -0.713903,0 -1.288293,0.5749074 -1.288293,1.2888102 V 15.983914 c 0,0.713903 0.57439,1.288811 1.288293,1.288811 h 2.658753 c 0.713903,0 1.288293,-0.574908 1.288293,-1.288811 v -1.165303 h 1.876383"
         sodipodi:nodetypes="ccccsssssssscc" /><path
         id="path113"
         style="opacity:1;fill:none;stroke:#1f536c;stroke-width:1.05833;stroke-linecap:round;stroke-linejoin:round;stroke-dasharray:none;stop-color:#000000;stop-opacity:1;stroke-opacity:1"
         d="m 13.417969,18.699219 c -0.01808,1.319534 -0.03493,2.687155 -0.05056,4.065083 m 2.208763,-9.78188 c -0.45472,0.459609 -0.862978,1.016701 -1.198896,1.662753"
         sodipodi:nodetypes="cccc" /><path
         style="font-variation-settings:normal;opacity:1;fill:none;fill-opacity:1;stroke:#1f536c;stroke-width:1.05833;stroke-linecap:round;stroke-linejoin:round;stroke-miterlimit:4;stroke-dasharray:none;stroke-dashoffset:0;stroke-opacity:1"
         d="m 3.7041653,24.870834 c 0,0 2.0790289,1.058333 3.1750003,1.058333 1.0959712,0 2.0790292,-1.058333 3.1750004,-1.058333 1.095971,0 2.079029,1.058333 3.174999,1.058333 1.095973,0 2.079031,-1.058333 3.175003,-1.058333 1.09597,0 2.079028,1.058333 3.174999,1.058333 1.095972,0 2.079029,-1.058333 3.175,-1.058333"
         id="path116"
         sodipodi:nodetypes="czzzzzc" /><path
         style="font-variation-settings:normal;opacity:1;fill:none;fill-opacity:1;stroke:#1f536c;stroke-width:1.05833;stroke-linecap:round;stroke-linejoin:round;stroke-miterlimit:4;stroke-dasharray:none;stroke-dashoffset:0;stroke-opacity:1"
         d="M 8.1890331,13.417228 C 8.1385321,11.75519 9.2324028,11.449218 9.1243131,10.397885 9.0164742,9.3489933 7.5998536,8.7133273 7.5998537,7.6584644 c 1e-7,-1.0548624 1.5244591,-1.6845567 1.5244594,-2.7394195 0,-1.9622655 -0.8468725,-1.4232369 -0.9709804,-4.38987987"
         id="path117"
         sodipodi:nodetypes="caacc" /></g><g
       id="g126"
       style="stroke-width:1.05833;stroke-dasharray:none;stroke:#1f536c;stroke-opacity:1"
       transform="translate(105.83333)"><path
         id="path118"
         style="opacity:1;fill:none;stroke:#1f536c;stroke-width:1.05833;stroke-linecap:round;stroke-linejoin:round;stroke-dasharray:none;stroke-opacity:1"
         d="m 13.229166,4.0354125 c -1.25847,0 -3.8823643,4.0926973 -5.3671137,7.7736855 a 2.2543049,2.2543049 0 0 1 1.1689209,1.97559 2.2543049,2.2543049 0 0 1 -2.254126,2.254126 c 2e-7,2.921112 1.983468,5.382339 4.6901528,6.141227 a 3.0268044,3.0268044 0 0 1 -0.02584,-0.361218 3.0268044,3.0268044 0 0 1 3.026689,-3.026689 3.0268044,3.0268044 0 0 1 2.895947,2.146639 c 1.416063,-1.171087 2.317688,-2.9311 2.317688,-4.899959 0,-0.156988 -0.01223,-0.326859 -0.02997,-0.502295 A 3.0268044,3.0268044 0 0 1 17.6413,16.303914 3.0268044,3.0268044 0 0 1 14.614612,13.277226 3.0268044,3.0268044 0 0 1 17.6413,10.25002 3.0268044,3.0268044 0 0 1 17.914152,10.26346 C 16.404535,7.070736 14.312604,4.0354125 13.229166,4.0354125 Z" /><circle
         style="font-variation-settings:normal;opacity:1;fill:none;fill-opacity:1;stroke:#1f536c;stroke-width:1.05833;stroke-linecap:round;stroke-linejoin:round;stroke-miterlimit:4;stroke-dasharray:none;stroke-dashoffset:0;stroke-opacity:1"
         id="path119"
         cx="21.910727"
         cy="3.8868086"
         r="3.3576436" /><circle
         style="font-variation-settings:normal;opacity:1;fill:none;fill-opacity:1;stroke:#1f536c;stroke-width:1.05833;stroke-linecap:round;stroke-linejoin:round;stroke-miterlimit:4;stroke-dasharray:none;stroke-dashoffset:0;stroke-opacity:1"
         id="circle119"
         cx="14.467948"
         cy="21.81893"
         r="3.0268044" /><circle
         style="font-variation-settings:normal;opacity:1;fill:none;fill-opacity:1;stroke:#1f536c;stroke-width:1.05833;stroke-linecap:round;stroke-linejoin:round;stroke-miterlimit:4;stroke-dasharray:none;stroke-dashoffset:0;stroke-opacity:1"
         id="circle120"
         cx="3.5559695"
         cy="22.902363"
         r="3.0268044" /><circle
         style="font-variation-settings:normal;opacity:1;fill:none;fill-opacity:1;stroke:#1f536c;stroke-width:1.05833;stroke-linecap:round;stroke-linejoin:round;stroke-miterlimit:4;stroke-dasharray:none;stroke-dashoffset:0;stroke-opacity:1"
         id="circle121"
         cx="17.641478"
         cy="13.277064"
         r="3.0268044" /><circle
         style="font-variation-settings:normal;opacity:1;fill:none;fill-opacity:1;stroke:#1f536c;stroke-width:1.05833;stroke-linecap:round;stroke-linejoin:round;stroke-miterlimit:4;stroke-dasharray:none;stroke-dashoffset:0;stroke-opacity:1"
         id="circle123"
         cx="23.893999"
         cy="21.837729"
         r="2.0351684" /><circle
         style="font-variation-settings:normal;opacity:1;fill:none;fill-opacity:1;stroke:#1f536c;stroke-width:1.05833;stroke-linecap:round;stroke-linejoin:round;stroke-miterlimit:4;stroke-dasharray:none;stroke-dashoffset:0;stroke-opacity:1"
         id="circle124"
         cx="5.0515709"
         cy="4.9683599"
         r="2.7250762" /><circle
         style="font-variation-settings:normal;opacity:1;fill:none;fill-opacity:1;stroke:#1f536c;stroke-width:1.05833;stroke-linecap:round;stroke-linejoin:round;stroke-miterlimit:4;stroke-dasharray:none;stroke-dashoffset:0;stroke-opacity:1"
         id="circle125"
         cx="6.7766728"
         cy="13.784497"
         r="2.2543049" /></g></g><style
     type="text/css"
     id="style1">&#10;	.st0{fill:none;stroke:#000000;stroke-width:2;stroke-linecap:round;stroke-linejoin:round;stroke-miterlimit:10;}&#10;</style></svg>
