<?xml version="1.0" encoding="UTF-8" standalone="no"?>
<!-- Created with Inkscape (http://www.inkscape.org/) -->

<svg
   width="150"
   height="60"
   viewBox="0 0 39.687501 15.874999"
   version="1.1"
   id="svg1"
   xml:space="preserve"
   inkscape:version="1.3 (0e150ed6c4, 2023-07-21)"
   sodipodi:docname="icons-impacto.svg"
   xmlns:inkscape="http://www.inkscape.org/namespaces/inkscape"
   xmlns:sodipodi="http://sodipodi.sourceforge.net/DTD/sodipodi-0.dtd"
   xmlns="http://www.w3.org/2000/svg"
   xmlns:svg="http://www.w3.org/2000/svg"><sodipodi:namedview
     id="namedview1"
     pagecolor="#ffffff"
     bordercolor="#000000"
     borderopacity="0.25"
     inkscape:showpageshadow="2"
     inkscape:pageopacity="0.0"
     inkscape:pagecheckerboard="0"
     inkscape:deskcolor="#d1d1d1"
     inkscape:document-units="px"
     showguides="true"
     inkscape:zoom="4.0022244"
     inkscape:cx="3.7479158"
     inkscape:cy="44.850059"
     inkscape:window-width="1920"
     inkscape:window-height="1009"
     inkscape:window-x="-8"
     inkscape:window-y="-8"
     inkscape:window-maximized="1"
     inkscape:current-layer="layer1"><inkscape:page
       x="0"
       y="0"
       width="39.6875"
       height="15.874999"
       id="page71"
       margin="0"
       bleed="0" /></sodipodi:namedview><defs
     id="defs1"><inkscape:path-effect
       effect="fillet_chamfer"
       id="path-effect109"
       is_visible="true"
       lpeversion="1"
       nodesatellites_param="F,0,0,1,0,0,0,1 @ F,0,0,1,0,0.89591423,0,1 @ F,0,0,1,0,1.1808107,0,1 @ F,0,0,1,0,0,0,1 @ F,0,0,1,0,0,0,1 @ F,0,0,1,0,0,0,1 @ F,0,0,1,0,1.1777575,0,1 @ F,0,0,1,0,1.0887076,0,1 @ F,0,0,1,0,0,0,1 @ F,0,0,1,0,0,0,1"
       radius="0"
       unit="px"
       method="auto"
       mode="F"
       chamfer_steps="1"
       flexible="false"
       use_knot_distance="true"
       apply_no_radius="true"
       apply_with_radius="true"
       only_selected="false"
       hide_knots="false" /><inkscape:path-effect
       effect="spiro"
       id="path-effect69"
       is_visible="true"
       lpeversion="1" /><inkscape:path-effect
       effect="spiro"
       id="path-effect60"
       is_visible="true"
       lpeversion="1" /><inkscape:path-effect
       effect="spiro"
       id="path-effect35"
       is_visible="true"
       lpeversion="1" /><inkscape:path-effect
       effect="spiro"
       id="path-effect21"
       is_visible="true"
       lpeversion="1" /><inkscape:path-effect
       effect="spiro"
       id="path-effect20"
       is_visible="true"
       lpeversion="1" /><inkscape:path-effect
       effect="spiro"
       id="path-effect19"
       is_visible="true"
       lpeversion="1" /><inkscape:path-effect
       effect="spiro"
       id="path-effect17"
       is_visible="true"
       lpeversion="1" /></defs><g
     inkscape:label="Camada 1"
     inkscape:groupmode="layer"
     id="layer1"
     transform="translate(-29.014412,-52.387495)"><path
       id="path4"
       style="fill:none;stroke:#1f536c;stroke-width:1.05833;stroke-linecap:round;stroke-linejoin:round;stroke-dasharray:none"
       d="m 64.994008,62.79815 c 0,1.574174 -1.301364,2.850293 -2.906679,2.850293 -1.605314,0 -2.906678,-1.276119 -2.906678,-2.850293 0,-1.574173 2.906678,-5.395734 2.906678,-5.395734 0,0 2.906679,3.821561 2.906679,5.395734 z m 3.178739,-0.940404 c 0,3.244992 -2.724534,5.875577 -6.085418,5.875577 -3.360884,0 -6.085418,-2.630585 -6.085418,-5.875577 0,-3.244992 6.085418,-8.941093 6.085418,-8.941093 0,0 6.085418,5.696101 6.085418,8.941093 z" /><g
       id="g7"
       transform="translate(13.235462)"><path
         id="rect4"
         style="fill:none;stroke:#1f536c;stroke-width:1.05833;stroke-linecap:round;stroke-linejoin:round;stroke-dasharray:none"
         d="m 30.282618,52.91666 h 10.692755 c 0.409428,0 0.803209,0.334673 0.739041,0.739041 l -2.116667,13.338588 c -0.06417,0.404368 -0.329613,0.739041 -0.739041,0.739041 h -6.459421 c -0.409428,0 -0.674873,-0.334673 -0.739041,-0.739041 L 29.543577,53.655701 c -0.06417,-0.404368 0.329613,-0.739041 0.739041,-0.739041 z"
         sodipodi:nodetypes="sssssssss" /><path
         id="path7"
         style="fill:none;stroke:#1f536c;stroke-width:1.05833;stroke-linecap:round;stroke-linejoin:round;stroke-dasharray:none"
         d="m 29.994616,56.507522 c 1.497913,-0.501938 3.435193,-0.625037 5.634379,0.474556 2.030724,1.015361 3.799206,1.587851 5.271088,1.812824" /></g><g
       id="g11"><path
         id="rect10"
         style="fill:none;stroke:#1f536c;stroke-width:1.05833;stroke-linecap:round;stroke-linejoin:round;stroke-dasharray:none"
         d="m 32.65062,52.916663 c -0.379705,0 -0.685414,0.305707 -0.685414,0.685413 v 1.736216 h -1.736215 c -0.379705,0 -0.685414,0.305708 -0.685414,0.685413 0,0.379705 0.305709,0.685414 0.685414,0.685414 h 1.736215 v 1.736215 c 0,0.379706 0.305709,0.685413 0.685414,0.685413 0.379705,0 0.685413,-0.305707 0.685413,-0.685413 v -1.736215 h 1.736216 c 0.379705,0 0.685412,-0.305709 0.685412,-0.685414 0,-0.379705 -0.305707,-0.685413 -0.685412,-0.685413 h -1.736216 v -1.736216 c 0,-0.379706 -0.305708,-0.685413 -0.685413,-0.685413 z" /><path
         id="path9"
         style="fill:none;stroke:#1f536c;stroke-width:1.05833;stroke-linecap:round;stroke-linejoin:round;stroke-dasharray:none"
         d="m 29.581347,61.099456 a 6.0879017,6.0869152 15.000771 0 0 1.355075,4.424574 6.0879017,6.0869152 15.000771 0 0 3.693785,2.126967 c -0.05254,-0.239774 -0.09788,-0.480165 -0.121572,-0.710252 -0.07327,-0.711504 0.904758,-1.604775 1.221629,-2.467037 0.31687,-0.862262 0.376329,-0.997407 0.167819,-1.768747 -0.208511,-0.771343 -0.667266,-0.392477 -1.174943,-0.487747 -0.507673,-0.09527 -1.48094,-0.234654 -2.560713,-1.229794 -0.517346,-0.476799 -1.596288,-0.251053 -2.58108,0.112036 z m 8.067637,-3.106596 c -0.139743,0.121949 -0.243204,0.236497 -0.301587,0.341026 -0.622755,1.114975 -0.478339,3.054098 0.352928,2.710466 0.831265,-0.343633 1.518202,-0.653713 1.591475,0.05779 0.07327,0.711506 -0.218809,1.810682 0.4064,2.151979 0.309373,0.168886 0.850404,0.566824 1.453005,0.938626 a 6.0879017,6.0869152 15.000771 0 0 -0.829073,-6.422856 6.0879017,6.0869152 15.000771 0 0 -0.899147,-0.881893 c -0.738097,0.384498 -1.392536,0.771969 -1.774001,1.104861 z" /><path
         id="ellipse11"
         style="fill:none;stroke:#1f536c;stroke-width:1.05833;stroke-linecap:round;stroke-linejoin:round;stroke-dasharray:none"
         d="m -7.8205732,65.617688 a 6.0872469,6.0875702 0 0 0 -0.1486004,-0.111387 c 0.00523,0.16095 -0.04534,0.324189 -0.1564568,0.458662 -0.2418851,0.292726 -0.6723535,0.33407 -0.9650431,0.09223 l -1.3384225,-1.105897 -1.106102,1.338592 c -0.241885,0.292727 -0.672422,0.333342 -0.965112,0.0915 -0.292689,-0.24184 -0.333569,-0.671972 -0.09168,-0.9647 l 1.046847,-1.266881 a 6.0872469,6.0875702 0 0 0 -0.262026,-0.01874 6.0872469,6.0875702 0 0 0 -6.087255,6.08746 6.0872469,6.0875702 0 0 0 6.087395,6.087709 6.0872469,6.0875702 0 0 0 6.0872544,-6.087461 6.0872469,6.0875702 0 0 0 -2.1007946,-4.601092 z"
         transform="matrix(0.7709325,-0.63691686,0.63703488,0.77083498,0,0)" /></g></g><style
     type="text/css"
     id="style1">&#10;	.st0{fill:none;stroke:#000000;stroke-width:2;stroke-linecap:round;stroke-linejoin:round;stroke-miterlimit:10;}&#10;</style></svg>
