<?xml version="1.0" encoding="UTF-8" standalone="no"?>
<!-- Created with Inkscape (http://www.inkscape.org/) -->

<svg
   width="269.24948"
   height="92.677719"
   viewBox="0 0 269.24948 92.677719"
   version="1.1"
   id="svg1"
   inkscape:version="1.3 (0e150ed6c4, 2023-07-21)"
   sodipodi:docname="logo.svg"
   xmlns:inkscape="http://www.inkscape.org/namespaces/inkscape"
   xmlns:sodipodi="http://sodipodi.sourceforge.net/DTD/sodipodi-0.dtd"
   xmlns="http://www.w3.org/2000/svg"
   xmlns:svg="http://www.w3.org/2000/svg">
  <sodipodi:namedview
     id="namedview1"
     pagecolor="#ffffff"
     bordercolor="#000000"
     borderopacity="0.25"
     inkscape:showpageshadow="2"
     inkscape:pageopacity="0.0"
     inkscape:pagecheckerboard="0"
     inkscape:deskcolor="#d1d1d1"
     inkscape:document-units="px"
     inkscape:zoom="1.30875"
     inkscape:cx="158.16619"
     inkscape:cy="43.935053"
     inkscape:window-width="1920"
     inkscape:window-height="1009"
     inkscape:window-x="-8"
     inkscape:window-y="-8"
     inkscape:window-maximized="1"
     inkscape:current-layer="layer1" />
  <defs
     id="defs1" />
  <g
     inkscape:label="Camada 1"
     inkscape:groupmode="layer"
     id="layer1"
     transform="translate(48.999199,-54.363422)">
    <path
       id="text1"
       style="font-size:21.3333px;font-family:Aqualo;-inkscape-font-specification:'Aqualo, Normal';fill:#427791;fill-opacity:1;stroke-width:3.32633"
       d="m 54.869324,55.807468 c -1.845288,0.814291 -5.294837,2.423284 -5.294837,2.423284 -1.677831,0.767397 -3.456817,1.656496 -4.463258,3.209383 -1.106034,1.67635 -0.811845,4.192324 0.929034,5.268857 1.711372,1.012002 4.002854,0.04318 5.645663,-0.630173 l 7.744107,-3.540736 c 1.191044,-0.466843 2.347416,-0.998747 3.202888,-1.858064 0.949463,-0.824433 1.627879,-2.068703 1.448771,-3.313335 -0.203105,-1.467713 -1.567029,-2.534621 -2.975503,-2.930026 -1.671528,-0.337682 -4.391577,0.556519 -6.236865,1.37081 z m 44.353201,11.453727 c -0.30491,0.0077 -0.61445,0.06251 -0.91604,0.168944 -2.62557,0.922491 -3.33484,4.470886 -3.61868,7.380291 -0.56768,5.818812 -1.06541,11.708835 -0.14293,17.456701 0.85153,5.818848 3.40997,11.490869 7.880535,14.897019 4.68344,3.61905 11.28153,4.11783 16.3198,1.20838 4.68345,-2.62556 7.23738,-7.45143 8.1599,-12.915478 1.06441,-6.102681 4.1144,-11.850314 3.47574,-18.307814 -0.42577,-3.831931 -2.90967,-8.086937 -6.45775,-7.87405 -2.98039,0.142032 -5.10794,3.543836 -5.32083,6.73711 -0.21288,3.193275 0.92158,6.317462 1.70215,9.43976 0.78058,3.122291 1.27632,6.601286 -0.14296,9.439777 -1.56115,3.122257 -5.17502,4.685605 -8.43925,3.975989 -3.26423,-0.638647 -6.03252,-3.335928 -7.45177,-6.529218 -1.41922,-3.264223 -1.63314,-6.957169 -1.06544,-10.505235 0.49671,-3.05134 1.49122,-6.103012 1.06544,-9.225336 -0.21288,-1.70308 -1.21092,-3.333911 -2.48823,-4.398304 -0.74509,-0.585434 -1.64498,-0.971821 -2.559715,-0.948536 z m -63.50557,0.168944 c -1.986922,0 -3.829129,1.27292 -5.106436,3.04695 -1.277306,1.70308 -1.986529,3.835157 -2.696146,5.964007 -2.696532,8.302482 -4.822658,16.815391 -6.951501,25.330754 -0.567692,2.05787 -0.993463,4.40485 0,6.24986 0.922497,1.63209 2.980063,2.19887 4.541215,1.70215 1.703072,-0.56771 2.979526,-2.2025 3.547216,-4.04747 0.49673,-1.56117 0.493284,-3.3364 1.344825,-4.75558 0.212884,-0.42577 0.495762,-0.71018 0.779608,-0.994011 1.490195,-1.348262 3.761684,-1.631667 5.606682,-0.85107 2.199803,0.92248 3.974066,2.911601 5.535215,4.898521 1.561155,1.98691 3.126512,4.11499 5.184395,5.3923 0.141932,0.14197 0.35233,0.21501 0.565216,0.28586 1.064422,0.56767 2.482795,0.78144 3.547216,0.14295 1.419231,-0.7806 0.569713,-2.34237 0.285857,-3.76161 -0.851539,-3.40608 -1.630212,-6.885165 -2.481753,-10.362271 -1.774033,-6.812295 -3.695244,-13.624907 -6.249856,-20.224342 -0.709616,-1.84498 -1.489799,-3.759148 -2.696146,-5.249343 -1.206349,-1.561145 -2.91061,-2.696654 -4.755607,-2.767606 z m 111.055165,0 c -1.98692,0 -3.82912,1.27292 -5.10644,3.04695 -1.27731,1.70308 -1.98653,3.835157 -2.69614,5.964007 -2.69654,8.302482 -4.82266,16.815391 -6.95151,25.330754 -0.56769,2.05787 -0.99346,4.40485 0,6.24986 0.92251,1.63209 2.98006,2.19887 4.54123,1.70215 1.70306,-0.56771 2.97952,-2.2025 3.5472,-4.04747 0.49674,-1.56117 0.4933,-3.3364 1.34483,-4.75558 0.21289,-0.42577 0.49576,-0.71018 0.77961,-0.994011 1.49019,-1.348262 3.76168,-1.631667 5.60669,-0.85107 2.19979,0.92248 3.97405,2.911601 5.53521,4.898521 1.56115,1.98691 3.12651,4.11499 5.18439,5.3923 0.14197,0.14197 0.35234,0.21501 0.56522,0.28586 1.06441,0.56767 2.4828,0.78144 3.54722,0.14295 1.41922,-0.7806 0.56971,-2.34237 0.28585,-3.76161 -0.85153,-3.40608 -1.63671,-6.885165 -2.48824,-10.362271 -1.77404,-6.812295 -3.68875,-13.624907 -6.24337,-20.224342 -0.70961,-1.84498 -1.4898,-3.759148 -2.69614,-5.249343 -1.20635,-1.561145 -2.91061,-2.696654 -4.75561,-2.767606 z m -83.236151,3.76161 c -5.605957,3.831896 -9.226373,10.429999 -9.368293,17.242329 -0.212882,6.812279 3.053186,13.555352 8.517217,17.671102 4.186728,3.19329 9.795292,4.82003 15.046442,3.82657 3.33519,-0.63864 6.52681,-2.3374 8.9395,-4.89202 0.28384,-0.35482 0.63869,-0.7107 0.92254,-1.06547 2.83846,-3.69001 3.26631,-7.737791 2.13093,-12.35031 -0.70962,-2.838458 -2.34342,-5.533241 -4.82707,-7.094419 -2.48366,-1.561152 -5.96111,-1.702189 -8.30283,0.142952 -2.27077,1.774027 -2.90996,5.608742 -0.994,7.737602 0.9225,0.99348 2.13197,1.55771 3.19639,2.267358 1.06442,0.709598 2.05347,1.77669 2.12443,3.124952 0.0709,1.135346 -0.70918,2.200405 -1.77361,2.839045 -0.99346,0.5677 -2.19794,0.70768 -3.40428,0.6367 -5.109231,-0.0708 -10.078018,-3.333516 -12.135904,-8.016985 -2.128842,-4.683469 -1.275723,-10.578359 2.059467,-14.481238 3.335189,-3.902847 9.013667,-5.674582 13.980967,-4.255338 1.20635,0.283735 2.41284,0.851573 3.69015,0.922523 1.34826,0.07085 2.76513,-0.352324 3.33282,-1.487733 0.56769,-1.064424 0.21537,-2.48826 -0.56521,-3.410784 -0.78058,-0.92249 -1.91809,-1.41931 -3.05347,-1.845079 -6.004511,-1.700121 -11.346744,-2.875363 -19.516186,2.488243 z m -28.52716,7.380253 c 0.42577,-0.07082 0.852579,0.353354 1.065463,0.708175 1.632116,2.483636 2.62619,5.32196 2.839075,8.231335 0.07095,0.99348 -0.0025,2.267917 -0.357322,3.261364 -0.354806,1.06443 -1.062019,1.917521 -2.410287,2.059471 -1.206346,0.141965 -2.41481,-0.494267 -3.053464,-1.487747 -0.638654,-0.993463 -0.922036,-2.204411 -0.851073,-3.410774 0.07095,-1.206329 0.430793,-2.340904 0.714639,-3.547234 0.42577,-1.561182 0.919058,-3.188455 1.344824,-4.820584 0.141932,-0.425769 0.282364,-0.852105 0.708145,-0.994006 z m 111.055161,0 c 0.42577,-0.07082 0.85258,0.353354 1.06547,0.708175 1.63211,2.483636 2.62618,5.32196 2.83908,8.231335 0.0709,0.99348 -0.002,2.267917 -0.35733,3.261364 -0.35481,1.06443 -1.06202,1.917521 -2.41029,2.059471 -1.20635,0.141965 -2.41481,-0.494267 -3.05346,-1.487747 -0.63865,-0.993463 -0.92204,-2.204411 -0.85107,-3.410774 0.0709,-1.206329 0.4243,-2.340904 0.70813,-3.547234 0.42578,-1.561182 0.92555,-3.188455 1.35134,-4.820584 0.14196,-0.425769 0.28235,-0.852105 0.70813,-0.994006 z m -19.50698,40.936858 c -2.78856,-0.05 -5.58712,0.31526 -8.27035,1.09143 -0.66526,0.22186 -1.32585,0.44653 -1.85806,0.89005 -0.57656,0.48785 -0.93215,1.19932 -0.7991,1.86459 0.17739,0.84266 1.02189,1.37416 1.86456,1.50721 0.79832,0.1331 1.63909,-0.002 2.48175,-0.091 0.84267,-0.0442 1.72666,5.4e-4 2.43628,0.53271 0.0443,0.0442 0.13757,0.13112 0.18191,0.17544 0.84266,0.84269 0.88355,2.21979 0.88355,3.41726 -0.0887,4.34639 -0.22316,8.64596 -0.31183,12.94801 0,0.97569 -0.044,1.99977 0.26636,2.97549 0.31044,0.97575 1.02528,1.86371 2.00098,2.08548 3.41503,0.93138 3.90116,-3.77472 3.76812,-6.08096 -0.17739,-4.03594 -0.35533,-8.022 -0.53273,-12.05794 -0.0444,-1.28619 -0.0456,-2.79438 0.9745,-3.5927 0.66526,-0.53222 1.6001,-0.62259 2.44278,-0.57821 0.88702,0.0889 1.72353,0.26826 2.56621,0.091 1.33051,-0.22185 2.75018,-1.82351 1.55271,-3.02095 -0.39916,-0.39917 -0.92843,-0.57623 -1.41629,-0.75366 -2.66105,-0.887 -5.44279,-1.35342 -8.23135,-1.40327 z m -58.607043,0.16234 c -2.306243,0.0442 -4.87498,0.57887 -6.249857,2.39728 -0.04433,0.0443 -0.04659,0.0869 -0.09097,0.1754 -1.108771,1.55229 -1.109812,3.59566 -1.065463,5.50275 0.08871,4.74556 0.176515,9.4888 0.220888,14.23435 0.04435,0.9757 0.04911,1.99213 0.448276,2.9235 0.39916,0.93138 1.239668,1.73578 2.215384,1.78013 1.197476,0.0442 2.171298,-0.97782 2.481753,-2.13094 0.354808,-1.10879 0.224009,-2.30964 0.09095,-3.46275 -0.08871,-1.15314 -0.137036,-2.39069 0.350825,-3.4108 0.266106,-0.66526 0.802996,-1.20215 1.468261,-1.46827 1.286172,-0.4435 2.351212,0.36065 2.839071,1.51376 0.266106,0.66527 0.394309,1.41481 0.571716,2.12442 0.753963,2.92717 2.842806,5.45748 5.548209,6.74363 0.532212,0.26611 1.107221,0.4861 1.728134,0.44177 2.794104,-0.2661 0.577437,-4.2587 -0.220892,-5.41176 -0.887015,-1.28621 -1.864823,-2.61217 -2.13093,-4.16444 -0.266105,-1.68536 0.401333,-3.41661 1.110944,-4.92454 0.975719,-2.08449 2.082678,-4.25768 1.461765,-6.65264 -0.487859,-1.86271 -1.81528,-3.46265 -3.456263,-4.48273 -2.128844,-1.37486 -4.793815,-1.77247 -7.321821,-1.72812 z m 146.001113,0.0131 c -1.24183,0.0115 -2.49961,0.31926 -3.58621,0.74066 -3.94721,1.55226 -7.19031,5.14872 -5.59367,9.62814 0.84266,2.39496 2.88438,3.94595 4.92451,5.32084 1.28619,0.7983 5.81354,2.61798 4.74911,4.65815 -0.26611,0.53222 -0.80074,0.88155 -1.3773,1.05897 -2.92716,0.84266 -5.05933,-0.17783 -7.80907,-0.53275 -0.2661,-0.0443 -0.57085,0.002 -0.79261,0.091 -0.17739,0.0889 -0.35956,0.22548 -0.44828,0.40278 -0.35479,0.62093 0.13704,1.37135 0.66917,1.90357 2.43931,2.48364 5.67305,4.52603 9.30982,3.41727 3.59242,-1.15314 6.65439,-5.41118 6.21088,-9.22537 -0.44352,-3.94721 -4.74635,-4.96983 -7.45175,-7.00998 -0.84267,-0.66526 -2.0411,-1.37522 -2.08545,-2.57271 -0.0887,-3.2376 5.59327,-1.81901 7.36729,-2.83905 1.72968,-1.02008 0.57379,-3.01329 -0.62369,-3.98901 -0.99789,-0.77612 -2.22093,-1.06359 -3.46275,-1.05248 z m -166.134489,0.25338 c -1.241825,0 -2.398081,0.80127 -3.196392,1.91004 -0.798319,1.06443 -1.239146,2.39208 -1.682657,3.72262 -1.685329,5.18907 -3.015789,10.51043 -4.346312,15.83256 -0.354808,1.28616 -0.620913,2.75141 0,3.90454 0.576557,1.0201 1.863351,1.37591 2.83907,1.06546 1.064425,-0.35481 1.860581,-1.37411 2.215388,-2.52725 0.310447,-0.9757 0.312353,-2.08846 0.844574,-2.9755 0.13306,-0.2661 0.309842,-0.43974 0.487254,-0.61717 0.931371,-0.84265 2.348618,-1.02058 3.501741,-0.53273 1.374874,0.57657 2.487042,1.81813 3.462759,3.05995 0.975721,1.24182 1.9492,2.57347 3.235375,3.3718 0.08871,0.0889 0.224277,0.13112 0.35732,0.17544 0.665259,0.35477 1.550118,0.48995 2.215385,0.0909 0.887019,-0.48784 0.352825,-1.46481 0.175413,-2.35182 -0.532211,-2.12884 -1.020511,-4.30404 -1.552719,-6.47724 -1.108772,-4.25767 -2.30141,-8.51801 -3.898041,-12.64264 -0.443509,-1.15311 -0.935187,-2.34949 -1.689152,-3.28082 -0.753969,-0.97572 -1.815883,-1.68379 -2.969006,-1.72817 z m 43.196783,0 c -1.241824,0 -2.39158,0.80127 -3.189895,1.91004 -0.798318,1.06443 -1.245643,2.39208 -1.689153,3.72262 -1.68533,5.18907 -3.015788,10.51043 -4.346313,15.83256 -0.354806,1.28616 -0.620911,2.75141 0,3.90454 0.576559,1.0201 1.863357,1.37591 2.839071,1.06546 1.064422,-0.35481 1.86058,-1.37411 2.215388,-2.52725 0.310446,-0.9757 0.312353,-2.08846 0.844573,-2.9755 0.13306,-0.2661 0.309845,-0.43974 0.487258,-0.61717 0.931365,-0.84265 2.348614,-1.02058 3.501738,-0.53273 1.374874,0.57657 2.487042,1.81813 3.462761,3.05995 0.975718,1.24182 1.949195,2.57347 3.235372,3.3718 0.08871,0.0889 0.224281,0.13112 0.357321,0.17544 0.665264,0.35477 1.550125,0.48995 2.215385,0.0909 0.88702,-0.48784 0.35933,-1.46481 0.18191,-2.35182 -0.53221,-2.12884 -1.02051,-4.30404 -1.552719,-6.47724 -1.108774,-4.25767 -2.307908,-8.51801 -3.904538,-12.64264 -0.443509,-1.15311 -0.935184,-2.34949 -1.689153,-3.28082 -0.753965,-0.97572 -1.815882,-1.68379 -2.969006,-1.72817 z m 56.235726,0 c -2.48364,-0.0442 -4.91985,1.1529 -6.78259,3.05997 -0.0887,0.0889 -0.17765,0.22337 -0.26636,0.31185 -4.56815,5.14471 -5.23393,15.07649 -0.53273,20.35428 2.6167,2.97149 6.64954,4.04079 10.10891,2.75458 0.53221,-0.22185 1.01938,-0.44316 1.50724,-0.75359 3.28197,-2.04018 5.28125,-5.98766 5.76911,-10.24537 0.39914,-3.28195 -0.0881,-6.74311 -1.50725,-9.53722 -1.72968,-3.41501 -4.92566,-5.85579 -8.29633,-5.9445 z m 44.61957,0 c -2.48363,-0.0442 -4.92634,1.1529 -6.78909,3.05997 -0.0887,0.0889 -0.17765,0.22337 -0.26636,0.31185 -4.56814,5.14471 -5.23393,15.07649 -0.53273,20.35428 2.61669,2.97149 6.65605,4.04079 10.11542,2.75458 0.53221,-0.22185 1.01937,-0.44316 1.50723,-0.75359 3.28197,-2.04018 5.28124,-5.98766 5.7691,-10.24537 0.39916,-3.28195 -0.0945,-6.74311 -1.51373,-9.53722 -1.72967,-3.41501 -4.91916,-5.85579 -8.28984,-5.9445 z m -164.036036,0.0131 c -2.234001,0.0199 -4.386166,0.82249 -5.82757,2.73513 -0.04433,0.0889 -0.137562,0.13211 -0.181907,0.22087 -2.483649,3.63677 -1.327324,8.78214 -1.149921,12.81806 0.08871,2.08449 0.132172,4.12522 0.220888,6.16539 0.04435,1.06439 0.09036,2.17521 0.578209,3.15093 0.443509,0.93137 1.417331,1.73125 2.481753,1.5982 3.193265,-0.31034 1.732813,-5.72544 3.196391,-7.58819 1.286178,-1.59659 3.278174,-2.43733 4.963508,-3.50176 2.572351,-1.64097 5.011409,-3.72744 6.386289,-6.47721 1.862733,-3.68112 -4.037081,-7.36074 -6.698134,-8.38079 -1.263996,-0.48232 -2.629103,-0.75258 -3.969506,-0.74063 z m 138.269996,0.0325 c -1.59664,-0.0442 -3.3285,0.13243 -4.43726,1.50723 -0.1331,0.1331 -0.22318,0.30979 -0.31186,0.48724 -0.7983,1.2862 -0.88468,3.10813 -0.92903,4.74914 -0.1331,3.45934 -0.26975,6.91476 -0.40279,10.3298 -0.0444,1.55226 -0.0842,3.05927 0.1819,4.56723 0.22176,1.46351 0.79253,2.92766 1.81259,3.85903 1.46358,1.37488 3.55328,1.28582 5.32732,0.75361 7.584,-2.17319 16.71564,-14.49893 8.51072,-22.61509 -2.7054,-2.66107 -6.29224,-3.54949 -9.75159,-3.63819 z m 2.21538,4.78809 c 2.04015,-0.1331 3.85647,1.81918 4.52172,4.12541 1.10878,3.76983 0.17618,8.77971 -2.35182,11.44077 -1.0644,1.06443 -2.66156,1.59741 -3.85904,0.79908 -0.22177,-0.13309 -0.4398,-0.31088 -0.61721,-0.53273 -0.75396,-0.88704 -1.1513,-2.26104 -1.46175,-3.54721 -0.5322,-2.43932 -0.97511,-5.01246 -0.48726,-7.45177 0.53221,-2.43929 2.17086,-4.74484 4.25536,-4.83355 z m -99.659897,0.1754 h 0.266366 c 2.705403,0 4.346315,1.24212 4.346315,3.5927 0,2.2619 -1.724505,3.72915 -4.651663,3.72915 -1.286174,0 -2.351817,-1.02019 -2.351817,-2.30634 v -2.6182 c 0,-1.33053 1.06027,-2.39731 2.390799,-2.39731 z m -39.025883,0.18191 c 1.729685,-0.0443 4.215861,0.88674 3.68365,3.05997 -0.887019,3.45934 -3.462509,5.1847 -6.522723,4.43075 -0.399152,-0.5322 -0.441776,-1.36934 -0.441776,-2.07894 0.04435,-2.35058 0.309328,-5.36743 3.280849,-5.41178 z m 117.51293,0.89655 c 0.50311,0.0332 1.00449,0.14476 1.48125,0.34434 3.54808,1.46359 4.69773,7.187 4.20989,11.0899 -0.22177,1.9071 -1.0614,3.81354 -2.43629,4.8336 -1.68533,1.19748 -3.90185,1.02105 -5.58718,-0.22091 -1.64098,-1.19748 -2.79412,-3.23857 -3.32633,-5.41176 -0.22178,-0.75399 -0.35846,-1.50693 -0.40279,-2.26087 -0.0887,-0.84269 -0.0876,-1.64557 0.0456,-2.48827 0.22178,-1.55224 0.8445,-3.05558 1.86457,-4.16439 1.09768,-1.19748 2.6421,-1.82143 4.1514,-1.72164 z m 44.61957,0 c 0.50311,0.0332 0.99799,0.14476 1.47475,0.34434 3.54808,1.46359 4.70425,7.187 4.21639,11.0899 -0.22177,1.9071 -1.0614,3.81354 -2.43628,4.8336 -1.68533,1.19748 -3.90836,1.02105 -5.59369,-0.22091 -1.64098,-1.19748 -2.79412,-3.23857 -3.32634,-5.41176 -0.22175,-0.75399 -0.35194,-1.50693 -0.39628,-2.26087 -0.0887,-0.84269 -0.0875,-1.64557 0.0456,-2.48827 0.22175,-1.55224 0.83799,-3.05558 1.85805,-4.16439 1.09769,-1.19748 2.6486,-1.82143 4.15792,-1.72164 z m -144.389919,0.87705 c 0.266105,-0.0442 0.529614,0.22018 0.662667,0.4418 1.020072,1.5523 1.640556,3.327 1.773607,5.1454 0.04435,0.62089 8.79e-4,1.41905 -0.220888,2.03996 -0.221765,0.66528 -0.664573,1.19769 -1.50724,1.28637 -0.753966,0.0889 -1.510882,-0.30801 -1.910043,-0.92905 -0.399155,-0.62088 -0.577083,-1.37697 -0.53273,-2.13091 0.04435,-0.75398 0.270873,-1.46141 0.448276,-2.21539 0.266106,-0.97571 0.571975,-2.00092 0.838078,-3.02097 0.08871,-0.26611 0.18216,-0.5285 0.448273,-0.61721 z m 43.196787,0 c 0.266104,-0.0442 0.529611,0.22018 0.662664,0.4418 1.020072,1.5523 1.640558,3.327 1.773606,5.1454 0.04435,0.62089 8.8e-4,1.41905 -0.220887,2.03996 -0.221765,0.66528 -0.664574,1.19769 -1.507241,1.28637 -0.753965,0.0889 -1.510882,-0.30801 -1.910042,-0.92905 -0.399152,-0.62088 -0.570587,-1.37697 -0.526234,-2.13091 0.04435,-0.75398 0.264377,-1.46141 0.441779,-2.21539 0.266107,-0.97571 0.571976,-2.00092 0.838078,-3.02097 0.08871,-0.26611 0.18216,-0.5285 0.448277,-0.61721 z"
       sodipodi:nodetypes="zcccccccczccsccccccssscccccccccccccccccscccccccccccccccccccsccccccccccccccccccccccccccccscccccccssccccccccsccccsccccccccccccccccscsscccccsccccccccccccccccscccccccccccccccssccccccccccscccccccccccccccccccscccccccccccccccccccccccccccccccccccccccccccccccccccccccccssssssscccccccccccccccccccccccccccccccccscccccccccsccc" />
    <path
       id="text2"
       style="font-size:21.3333px;font-family:Aqualo;-inkscape-font-specification:'Aqualo, Normal';fill:#427791;stroke-width:4.57914;fill-opacity:1"
       d="m -23.710571,58.753157 c -3.418237,0 -6.724008,1.8876 -8.860403,4.47836 -2.243221,2.501424 -3.529011,5.616292 -4.704032,8.653735 -3.314365,8.504676 -12.027191,38.307948 -11.716073,46.572978 0.311097,8.26507 2.834733,13.75606 8.029132,18.63299 6.528604,6.20043 16.590781,8.4214 25.221829,5.73762 1.327855,-0.46246 2.547981,-0.9144 3.765182,-1.56223 C -4.1319221,137.18924 1.07193,128.84102 2.2251839,121.00516 3.3784339,113.16924 1.8415319,105.81165 0.11276995,99.938871 -2.8781931,89.933169 -6.2946191,80.014578 -10.674235,70.455586 c -1.281844,-2.769434 -2.675209,-5.445123 -4.811612,-7.678533 -2.029575,-2.233413 -5.020128,-3.934555 -8.224724,-4.023896 z m 7.461912,24.143371 c 3.912413,-0.241895 9.3982859,17.928772 9.3982859,25.194272 0,2.68877 -0.108356,5.58327 -1.603873,7.85845 -1.6023049,2.48197 -5.2307399,3.61447 -7.7944129,1.95984 -2.456865,-1.65464 -2.572823,-5.27303 -2.679641,-7.85841 0,0 0.419854,-4.44681 1.202906,-8.41704 0.783046,-3.970239 -2.435689,-18.495362 1.476735,-18.737112 z m -2.092857,37.692022 c 1.078282,-0.0512 2.062162,0.16565 2.376464,0.19881 l 2.885012,0.79535 c 0.460813,0.0194 2.841388,0.68458 3.3739927,1.47696 0.6061882,0.70552 0.9621302,2.09232 0.6845802,3.84401 -0.321011,2.06227 -1.4523099,4.12032 -2.5427219,5.21685 -0.265082,0.24916 -0.536698,0.49397 -0.772592,0.64386 -1.3416,0.81193 -3.797709,0.13587 -4.459542,-0.0475 l -2.083076,-0.57755 c -0.661842,-0.18325 -3.143048,-0.9798 -3.706503,-2.64156 -0.622671,-1.78566 -0.102647,-5.29877 1.310476,-7.48916 0.691885,-1.04549 1.855629,-1.36901 2.93391,-1.42021 z" />
  </g>
</svg>
